<svg xmlns="http://www.w3.org/2000/svg" xmlns:xlink="http://www.w3.org/1999/xlink" id="Layer_1" x="0" y="0" version="1.1" viewBox="0 0 18.3 16.2" style="enable-background:new 0 0 18.3 16.2" xml:space="preserve"><g><path d="M18.3,4.5V6c0,0.4-0.3,0.8-0.7,0.8h0l-0.1-0.3c0,0,0-0.1,0-0.1V3.7h0.2C18,3.7,18.3,4,18.3,4.5z"/><path d="M0.9,3.7v2.7c0,0,0,0.1,0,0.1L0.8,6.8h0C0.3,6.8,0,6.4,0,6V4.5C0,4,0.3,3.7,0.7,3.7H0.9z"/><path d="M4.1,15.2c-0.1,0.6-0.6,1-1.2,1H2.1c-0.7,0-1.2-0.6-1.2-1.3v-1.7c0.2,0.1,0.3,0.1,0.5,0.1H3c0.2,0,0.3,0.1,0.3,0.3 C3.3,14.3,3.6,14.9,4.1,15.2z"/><path d="M17.6,13.3V15c0,0.7-0.6,1.3-1.2,1.3h-0.9c-0.6,0-1.2-0.5-1.2-1.1c0.4-0.3,0.7-0.8,0.7-1.4c0-0.2,0.1-0.3,0.3-0.3h1.6 C17.2,13.4,17.4,13.3,17.6,13.3C17.6,13.2,17.6,13.3,17.6,13.3z"/><path d="M17.8,9.4l-1.1-2.6c0,0,0,0,0,0c-0.1-0.1-0.1-0.2-0.1-0.4V1c0-0.6-0.4-1-1-1H2.6c-0.6,0-1,0.5-1,1v5.4c0,0.1,0,0.3-0.1,0.4 c0,0,0,0,0,0L0.5,9.4C0.4,9.6,0.4,9.7,0.4,9.8v1.8c0,0.4,0.3,0.8,0.7,1c0.1,0,0.2,0.1,0.3,0.1H3c0.5,0,1,0.5,1,1 c0,0.2,0.1,0.5,0.2,0.6c0,0,0.1,0.1,0.1,0.1c0.2,0.2,0.4,0.3,0.7,0.3h8.4c0.5,0,0.9-0.4,1-0.8c0-0.1,0-0.1,0-0.2 c0-0.3,0.1-0.5,0.3-0.7c0.2-0.2,0.4-0.3,0.7-0.3h1.6c0.2,0,0.3,0,0.5-0.1c0.3-0.2,0.5-0.5,0.5-0.9V9.8C17.9,9.7,17.9,9.6,17.8,9.4z M5.1,10.4c-0.5,0-0.8-0.4-0.8-0.9s0.4-0.9,0.8-0.9C5.6,8.7,6,9,6,9.5S5.6,10.4,5.1,10.4z M8,10.9c0,0.2-0.1,0.3-0.3,0.3H7.7 c-0.1,0-0.3-0.1-0.3-0.3v-1c0-0.2,0.1-0.3,0.3-0.3h0.1C7.9,9.6,8,9.7,8,9.9V10.9z M9.5,10.9c0,0.2-0.1,0.3-0.3,0.3H9.1 c-0.1,0-0.3-0.1-0.3-0.3v-1c0-0.2,0.1-0.3,0.3-0.3h0.1c0.1,0,0.3,0.1,0.3,0.3V10.9z M10.9,10.9c0,0.2-0.1,0.3-0.3,0.3h-0.1 c-0.1,0-0.3-0.1-0.3-0.3v-1c0-0.2,0.1-0.3,0.3-0.3h0.1c0.1,0,0.3,0.1,0.3,0.3V10.9z M13.2,10.4c-0.5,0-0.8-0.4-0.8-0.9 s0.4-0.9,0.8-0.9C13.6,8.7,14,9,14,9.5S13.6,10.4,13.2,10.4z M11.1,6.3c-1.3-0.1-2.5-0.1-3.8,0L3,6.5V2.1c0-0.6,0.4-1,1-1h10.1 c0.7,0,1.2,0.5,1.2,1.2v4.2L11.1,6.3z"/></g></svg>