<svg xmlns="http://www.w3.org/2000/svg" xmlns:xlink="http://www.w3.org/1999/xlink" id="Layer_1" x="0" y="0" version="1.1" viewBox="0 0 21.3 21.3" style="enable-background:new 0 0 21.3 21.3" xml:space="preserve"><g><path d="M19.9,8.6c-1.2-0.4-1.8-1.8-1.2-3c0.9-1.9-1.1-3.8-2.9-2.9c-1.2,0.6-2.6,0-3-1.2c-0.7-1.9-3.4-1.9-4.1,0 c-0.4,1.2-1.8,1.8-3,1.2C3.7,1.8,1.8,3.7,2.7,5.6c0.6,1.2,0,2.6-1.2,3c-1.9,0.7-1.9,3.4,0,4.1c1.2,0.4,1.8,1.8,1.2,3v0 c-0.9,1.9,1.1,3.8,2.9,2.9c1.2-0.6,2.6,0,3,1.2c0.7,1.9,3.4,1.9,4.1,0c0.4-1.2,1.8-1.8,3-1.2c1.9,0.9,3.8-1.1,2.9-2.9v0 c-0.6-1.2,0-2.6,1.2-3C21.8,12,21.8,9.3,19.9,8.6z M17.4,12.2c-0.9,0.3-1.3,1.3-0.9,2.2c0.6,1.4-0.8,2.8-2.1,2.1 c-0.9-0.4-1.9,0-2.2,0.9c-0.5,1.4-2.5,1.4-3,0c-0.3-0.9-1.3-1.3-2.2-0.9c-1.4,0.6-2.8-0.8-2.1-2.1c0.4-0.9,0-1.9-0.9-2.2 c-1.4-0.5-1.4-2.5,0-3C4.8,8.8,5.2,7.8,4.8,7C4.2,5.6,5.6,4.2,7,4.8c0.9,0.4,1.9,0,2.2-0.9c0.5-1.4,2.5-1.4,3,0 c0.3,0.9,1.3,1.3,2.2,0.9c1.4-0.6,2.8,0.8,2.1,2.1c-0.4,0.9,0,1.9,0.9,2.2C18.8,9.7,18.8,11.7,17.4,12.2z"/><circle cx="10.7" cy="10.7" r="2.6"/></g></svg>