<?xml version="1.0" encoding="utf-8"?>
<!-- Generator: Adobe Illustrator 25.4.1, SVG Export Plug-In . SVG Version: 6.00 Build 0)  -->
<svg version="1.1" id="Layer_1" xmlns="http://www.w3.org/2000/svg" xmlns:xlink="http://www.w3.org/1999/xlink" x="0px" y="0px"
	 viewBox="0 0 21 21" style="enable-background:new 0 0 21 21;" xml:space="preserve">
<g>
	<g>
		<path d="M13,9.4c-0.2,0-0.4,0.1-0.5,0.2c-0.1,0.2-0.2,0.4-0.2,0.6c0,0.3,0.1,0.5,0.2,0.6c0.1,0.2,0.3,0.2,0.5,0.2
			c0.2,0,0.4-0.1,0.5-0.2c0.1-0.2,0.2-0.4,0.2-0.6c0-0.3-0.1-0.5-0.2-0.6C13.4,9.5,13.2,9.4,13,9.4z"/>
		<path d="M8.2,8.5H7.5v1.3h0.7c0.3,0,0.5-0.1,0.6-0.2C9,9.5,9,9.4,9,9.1C9,8.9,9,8.8,8.8,8.6C8.7,8.5,8.5,8.5,8.2,8.5z"/>
		<path d="M10.4,3.2c-4,0-7.2,3.2-7.2,7.2s3.2,7.2,7.2,7.2s7.2-3.2,7.2-7.2S14.4,3.2,10.4,3.2z M9.1,12l-0.8-1.2H7.5V12H6.2V7.4h2.1
			c0.4,0,0.8,0.1,1.1,0.2C9.7,7.8,9.9,8,10.1,8.2c0.2,0.3,0.2,0.6,0.2,0.9c0,0.3-0.1,0.6-0.2,0.9c-0.2,0.2-0.4,0.4-0.7,0.6l1,1.4
			H9.1z M14.7,11.2c-0.2,0.3-0.4,0.5-0.6,0.6c-0.3,0.2-0.6,0.2-0.9,0.2c-0.4,0-0.7-0.1-1-0.4v1.6H11V8.5h1.2v0.4
			c0.2-0.3,0.6-0.4,1-0.4c0.3,0,0.6,0.1,0.9,0.2c0.3,0.2,0.5,0.4,0.6,0.6c0.2,0.3,0.2,0.6,0.2,1S14.9,10.9,14.7,11.2z"/>
	</g>
	<path d="M17.4,4.2c-0.6,0.5-0.6,1.4,0,2c0.3,0.3,0.6,0.4,1,0.4c1.6,3.3,1,7.5-1.8,10.2c-3.5,3.4-9.1,3.2-12.4-0.3S0.9,7.5,4.4,4.1
		c2.8-2.7,7-3.2,10.2-1.4c0,0.4,0.1,0.7,0.4,1c0.5,0.6,1.4,0.6,2,0s0.6-1.4,0-2c-0.4-0.4-0.9-0.5-1.3-0.4C11.8-0.9,6.7-0.4,3.2,2.9
		c-4.2,4-4.3,10.6-0.3,14.8S13.6,22,17.7,18c3.5-3.3,4.1-8.4,2-12.5c0.1-0.5,0-1-0.3-1.3C18.9,3.7,18,3.7,17.4,4.2z"/>
</g>
</svg>
