<svg xmlns="http://www.w3.org/2000/svg" xmlns:svgjs="http://svgjs.com/svgjs" xmlns:xlink="http://www.w3.org/1999/xlink" id="SvgjsSvg1037" width="288" height="288" version="1.1"><g id="SvgjsG1039"><svg xmlns="http://www.w3.org/2000/svg" width="288" height="288" data-name="Layer 1" viewBox="0 0 53 53"><path fill="#fff" d="M49.5,16.82h-2V13.39a1,1,0,0,0-1-1h-1v-3a1,1,0,0,0-1-1H7.72a1,1,0,0,0-1,1v3h-1a1,1,0,0,0-1,1v3.43H3.5a1,1,0,0,0-1,1V43.6a1,1,0,0,0,1,1h46a1,1,0,0,0,1-1V17.82A1,1,0,0,0,49.5,16.82ZM8.72,10.4H43.47v2H8.72Zm-2,4H45.47v2.43H6.71ZM48.5,42.6H4.5V18.82h44Z" class="color000 svgShape"/><path fill="#fff" d="M27.18,23.94a7.24,7.24,0,1,0,7.24,7.23A7.25,7.25,0,0,0,27.18,23.94Zm0,12.47a5.24,5.24,0,1,1,5.24-5.24A5.24,5.24,0,0,1,27.18,36.41Z" class="color000 svgShape"/><path fill="#fff" d="M28.74 31.15a1.81 1.81 0 0 0-.57-.37 4.32 4.32 0 0 0-.75-.22V28.4a1 1 0 0 1 .58.31 1.34 1.34 0 0 1 .28.67l.77-.11a1.73 1.73 0 0 0-.59-1.12 1.88 1.88 0 0 0-1-.38v-.36H27v.36a1.91 1.91 0 0 0-1.12.41 1.65 1.65 0 0 0-.56 1.29 1.63 1.63 0 0 0 .19.8 1.39 1.39 0 0 0 .55.55 3.23 3.23 0 0 0 .94.36v2.38a1.08 1.08 0 0 1-.75-.45 1.83 1.83 0 0 1-.31-.88l-.75.14a2.06 2.06 0 0 0 .3 1 1.61 1.61 0 0 0 .6.59 2.91 2.91 0 0 0 .91.25v.75h.44v-.76a1.86 1.86 0 0 0 1.66-2.51A1.51 1.51 0 0 0 28.74 31.15zM27 30.46a1.44 1.44 0 0 1-.72-.41 1 1 0 0 1-.21-.64 1 1 0 0 1 .25-.67 1.09 1.09 0 0 1 .68-.35zm1.16 2.72a1.11 1.11 0 0 1-.72.38V31.28a1.8 1.8 0 0 1 .81.44 1.06 1.06 0 0 1 .2.66A1.17 1.17 0 0 1 28.14 33.18zM39.18 20.67a1 1 0 0 0-1 1v1.81a1 1 0 0 0 2 0V21.67A1 1 0 0 0 39.18 20.67zM42.24 20.67a1 1 0 0 0-1 1v1.81a1 1 0 0 0 2 0V21.67A1 1 0 0 0 42.24 20.67zM45.3 20.67a1 1 0 0 0-1 1v1.81a1 1 0 1 0 2 0V21.67A1 1 0 0 0 45.3 20.67zM7.7 36.93a1 1 0 0 0-1 1v1.81a1 1 0 1 0 2 0V37.93A1 1 0 0 0 7.7 36.93zM10.76 36.93a1 1 0 0 0-1 1v1.81a1 1 0 0 0 2 0V37.93A1 1 0 0 0 10.76 36.93zM13.82 36.93a1 1 0 0 0-1 1v1.81a1 1 0 0 0 2 0V37.93A1 1 0 0 0 13.82 36.93z" class="color000 svgShape"/></svg></g></svg>